<?xml version="1.0" encoding="UTF-8"?>
<svg id="Layer_1" xmlns="http://www.w3.org/2000/svg" version="1.1" viewBox="0 0 20 20">
  <!-- Generator: Adobe Illustrator 29.5.1, SVG Export Plug-In . SVG Version: 2.1.0 Build 141)  -->
  <defs>
    <style>
      .st0 {
        fill: currentColor;
        fill-rule: evenodd;
      }
    </style>
  </defs>
  <path class="st0" d="M10.28,4.42c.21,0,.42.08.57.23s.23.35.23.57v4h4c.21,0,.42.08.57.23.15.15.23.35.23.57s-.08.42-.23.57c-.15.15-.35.23-.57.23h-4v4c0,.21-.08.42-.23.57-.15.15-.35.23-.57.23s-.42-.08-.57-.23c-.15-.15-.23-.35-.23-.57v-4h-4c-.21,0-.42-.08-.57-.23-.15-.15-.23-.35-.23-.57s.08-.42.23-.57c.15-.15.35-.23.57-.23h4v-4c0-.21.08-.42.23-.57s.35-.23.57-.23Z"/>
</svg>